<?xml version="1.0" encoding="UTF-8"?>
<svg version="1.1" xmlns="http://www.w3.org/2000/svg" width="50" height="50">
<path d="M0 0 C16.5 0 33 0 50 0 C50 16.5 50 33 50 50 C33.5 50 17 50 0 50 C0 33.5 0 17 0 0 Z " fill="#D4F5F6" transform="translate(0,0)"/>
<path d="M0 0 C16.5 0 33 0 50 0 C50 16.5 50 33 50 50 C33.5 50 17 50 0 50 C0 33.5 0 17 0 0 Z M16 2 C16 2.66 16 3.32 16 4 C15.278125 4.226875 14.55625 4.45375 13.8125 4.6875 C10.40125439 6.27941462 8.44232995 8.15061505 6 11 C5.29485154 13.14733927 5.29485154 13.14733927 5 15 C4.01 15.495 4.01 15.495 3 16 C1.43385835 21.95133827 0.62342856 29.48736944 2.90625 35.3125 C5.56174408 39.80641305 8.83596424 42.90118269 13 46 C15.23669149 45.16427096 15.23669149 45.16427096 15.875 42.6875 C17.12101376 39.71091157 18.62230316 38.13992716 21 36 C20.34 36 19.68 36 19 36 C18.67 34.68 18.34 33.36 18 32 C18.66 32 19.32 32 20 32 C20.33 32.99 20.66 33.98 21 35 C21.66 35 22.32 35 23 35 C23 35.66 23 36.32 23 37 C24.98 37 26.96 37 29 37 C29.33 37.99 29.66 38.98 30 40 C31.14657946 42.52247481 32.01615727 44.01615727 34 46 C37.30134188 45.82624516 38.76242144 45.19905231 41.3125 43.0625 C43.21107926 41.18616018 43.21107926 41.18616018 43 39 C43.66 39 44.32 39 45 39 C49.00538429 31.15612243 48.73221074 23.87089677 46.8046875 15.35546875 C44.76319069 9.37963101 40.62830389 6.08991005 35.25 3.0625 C28.85222785 0.11488594 22.7182245 0.12871372 16 2 Z " fill="#FDFEFE" transform="translate(0,0)"/>
<path d="M0 0 C2 2 2 2 2 4 C2.66 4.33 3.32 4.66 4 5 C4 5.66 4 6.32 4 7 C5.423125 6.938125 5.423125 6.938125 6.875 6.875 C10 7 10 7 12 9 C12.69937532 10.31647119 13.36729133 11.65022151 14 13 C14.33 13.66 14.66 14.32 15 15 C15.33 15.66 15.66 16.32 16 17 C12.45305244 18.18231585 9.19322247 18.22186116 5.5 18.25 C4.82324219 18.270625 4.14648438 18.29125 3.44921875 18.3125 C-1.54291143 18.35188564 -1.54291143 18.35188564 -3.96875 16.484375 C-4.3090625 15.99453125 -4.649375 15.5046875 -5 15 C-3.8141763 11.62496331 -2.72426311 9.35277269 0 7 C-0.33 7 -0.66 7 -1 7 C-1.33 5.02 -1.66 3.04 -2 1 C-1.34 0.67 -0.68 0.34 0 0 Z " fill="#D6F8F8" transform="translate(19,30)"/>
<path d="M0 0 C2.875 1 2.875 1 4.8125 2.6875 C6.26493065 5.8486726 5.79022172 7.69112149 4.875 11 C3.885 12.485 3.885 12.485 2.875 14 C-2.18723599 14.64282362 -2.18723599 14.64282362 -5.125 14 C-7.40719821 11.50384571 -7.98384561 9.72341627 -8.625 6.4375 C-8.125 4 -8.125 4 -6 1.625 C-3.125 0 -3.125 0 0 0 Z " fill="#16395D" transform="translate(26.125,16)"/>
<path d="M0 0 C1.98 0 3.96 0 6 0 C6 1.32 6 2.64 6 4 C6.66 4 7.32 4 8 4 C8.33 3.34 8.66 2.68 9 2 C9.33 3.65 9.66 5.3 10 7 C9.01 7 8.02 7 7 7 C7 6.34 7 5.68 7 5 C5.02 5 3.04 5 1 5 C0.67 3.35 0.34 1.7 0 0 Z " fill="#C2E2EE" transform="translate(22,32)"/>
<path d="M0 0 C0.9075 0.226875 1.815 0.45375 2.75 0.6875 C3.875 5.4375 3.875 5.4375 2.75 7.6875 C2.09 7.6875 1.43 7.6875 0.75 7.6875 C-0.875 5.6875 -0.875 5.6875 -2.25 3.6875 C-1.59 3.6875 -0.93 3.6875 -0.25 3.6875 C-0.25 3.0275 -0.25 2.3675 -0.25 1.6875 C-0.848125 2.038125 -1.44625 2.38875 -2.0625 2.75 C-4.25 3.6875 -4.25 3.6875 -7.25 2.6875 C-4.61280971 0.1517401 -3.74095095 -0.35970682 0 0 Z " fill="#102C4D" transform="translate(26.25,16.3125)"/>
<path d="M0 0 C0 0.66 0 1.32 0 2 C-0.99 2.33 -1.98 2.66 -3 3 C-4.66710346 4.49985609 -4.66710346 4.49985609 -6 6 C-5.01 6.33 -4.02 6.66 -3 7 C-3.99 7.495 -3.99 7.495 -5 8 C-4.67 9.32 -4.34 10.64 -4 12 C-7.93846154 7.69230769 -7.93846154 7.69230769 -8.25 4.1875 C-8.1675 3.465625 -8.085 2.74375 -8 2 C-5.09399739 0.74335022 -3.20395416 0 0 0 Z " fill="#4E6C89" transform="translate(26,18)"/>
<path d="M0 0 C2.475 0.495 2.475 0.495 5 1 C5.33 1.99 5.66 2.98 6 4 C6.66 4.33 7.32 4.66 8 5 C6.02 5 4.04 5 2 5 C1.34 3.35 0.68 1.7 0 0 Z " fill="#0D264D" transform="translate(20,25)"/>
<path d="M0 0 C1.32 0.66 2.64 1.32 4 2 C3.67 2.99 3.34 3.98 3 5 C0.03 4.505 0.03 4.505 -3 4 C-2 2 -2 2 0 0 Z " fill="#1A3769" transform="translate(23,20)"/>
<path d="M0 0 C1.98 0 3.96 0 6 0 C6 0.99 6 1.98 6 3 C4.02 3 2.04 3 0 3 C0 2.01 0 1.02 0 0 Z " fill="#213B5E" transform="translate(22,32)"/>
<path d="M0 0 C2.1385485 2.1385485 2.42655063 3.13275314 3 6 C1.68 6.33 0.36 6.66 -1 7 C-1.33 5.02 -1.66 3.04 -2 1 C-1.34 0.67 -0.68 0.34 0 0 Z " fill="#DCFCFD" transform="translate(19,30)"/>
</svg>
